:SAMPLES-PER-SECOND 30
:FULLY-SPECIFIED
:DEGREES
390
root  -13.1151 34.5425 -16.7898 -172.069 -0.561523 179.635
RightUpLeg  -9.53963 -15.2935 -1.645
RightLeg  8.48185 -1.14046 -0.0945583
RightFoot  3.53332 0.0112307 0.0575076
RightToes  -24.642 -0.108195 -0.21557
Spine  -2.59706 0.183003 0.549669
Spine1  -5.28416 0.371384 1.62646
HEad  -63.0175 2.13281 5.34724
LeftShoulder1  -1.94126e-019 -3.10601e-018 -2.51263e-017
LeftArm  -12.1272 25.0273 -83.3231
LeftForeArm  32.9288 -13.0923 -2.23112
LeftHand  -0.388597 -0.953678 7.24409
RightShoulder  -4.96962e-017 0 -2.36833e-017
RightArm  -37.6082 -24.8256 76.711
RightForeArm  51.5171 9.62042 1.53059
RightHand  -0.165245 -3.43683 -9.05872
LeftUpLeg  -8.07993 2.06055 0.274829
LeftLeg  8.08955 13.4607 1.02683
LeftFoot  2.87 -0.019287 0.792438
LeftToes  -18.3069 1.48347e-006 1.01831e-007
391
root  -13.1185 34.5485 -16.8002 -172.112 -0.622269 179.646
RightUpLeg  -9.42924 -15.3329 -1.65581
RightLeg  8.40239 -1.15052 -0.0937931
RightFoot  3.58744 0.0113436 0.055894
RightToes  -24.6917 -0.10807 -0.215611
Spine  -2.57653 0.157095 0.510595
Spine1  -5.24354 0.321516 1.55099
HEad  -63.1439 2.05071 5.54846
LeftShoulder1  -1.94126e-019 -3.10601e-018 -2.51263e-017
LeftArm  -11.6831 24.861 -83.1587
LeftForeArm  32.9109 -13.5855 -2.31684
LeftHand  -0.308225 -0.608664 6.06859
RightShoulder  -4.96962e-017 0 -2.36833e-017
RightArm  -37.1241 -24.8129 76.9332
RightForeArm  51.3597 9.77104 1.53879
RightHand  -0.169316 -3.3845 -9.07111
LeftUpLeg  -7.97278 2.00142 0.28286
LeftLeg  7.976 13.4764 1.00142
LeftFoot  2.90739 -0.0199384 0.802563
LeftToes  -18.2518 1.48347e-006 1.01831e-007
392
root  -13.1151 34.5538 -16.8091 -172.15 -0.584061 179.65
RightUpLeg  -9.32686 -15.2551 -1.66219
RightLeg  8.29642 -1.19575 -0.0952924
RightFoot  3.62835 0.0113212 0.0562147
RightToes  -24.6448 -0.108041 -0.215533
Spine  -2.55261 0.153878 0.466469
Spine1  -5.19581 0.317685 1.46705
HEad  -63.2936 1.95811 5.78796
LeftShoulder1  -1.94126e-019 -3.10601e-018 -2.51263e-017
LeftArm  -11.2593 24.7112 -83.0012
LeftForeArm  32.8957 -13.9478 -2.37588
LeftHand  -0.308308 -0.617214 6.06233
RightShoulder  -4.96962e-017 0 -2.36833e-017
RightArm  -36.2063 -24.878 77.1426
RightForeArm  50.9897 10.1085 1.55326
RightHand  -0.174053 -3.33702 -8.96707
LeftUpLeg  -7.85238 2.06415 0.288558
LeftLeg  7.84286 13.4585 0.968983
LeftFoot  2.95433 -0.0206563 0.813721
LeftToes  -18.2405 1.48347e-006 1.01831e-007
393
root  -13.1041 34.5599 -16.8207 -172.173 -0.488342 179.653
RightUpLeg  -9.23288 -15.2436 -1.65149
RightLeg  8.15916 -1.12563 -0.0869238
RightFoot  3.66585 0.0110237 0.0604653
RightToes  -24.5365 -0.108165 -0.215352
Spine  -2.53195 0.155822 0.420858
Spine1  -5.15458 0.324935 1.38122
HEad  -63.4375 1.79451 6.06076
LeftShoulder1  -1.94126e-019 -3.10601e-018 -2.51263e-017
LeftArm  -10.9908 24.6499 -82.8571
LeftForeArm  32.8555 -14.2097 -2.41477
LeftHand  -0.308924 -0.647843 6.02595
RightShoulder  -4.96962e-017 0 -2.36833e-017
RightArm  -34.9938 -24.9694 77.3223
RightForeArm  50.4503 10.5451 1.56376
RightHand  -0.177458 -3.2386 -8.85925
LeftUpLeg  -7.73809 2.20377 0.296712
LeftLeg  7.70957 13.4438 0.936817
LeftFoot  2.97499 -0.0210003 0.819067
LeftToes  -18.1315 1.48347e-006 1.01831e-007
394
root  -13.0876 34.5671 -16.8291 -172.168 -0.288712 179.674
RightUpLeg  -9.17814 -15.1303 -1.60974
RightLeg  8.00389 -1.03806 -0.0772438
RightFoot  3.73101 0.010679 0.0653908
RightToes  -24.4829 -0.108165 -0.21508
Spine  -2.52077 0.175651 0.389772
Spine1  -5.13235 0.370033 1.32277
HEad  -63.5054 1.68838 6.26424
LeftShoulder1  -1.94126e-019 -3.10601e-018 -2.51263e-017
LeftArm  -10.821 24.6879 -82.7708
LeftForeArm  32.7198 -14.3567 -2.43367
LeftHand  -0.310624 -0.637892 5.91852
RightShoulder  -4.96962e-017 0 -2.36833e-017
RightArm  -34.0742 -25.0034 77.4468
RightForeArm  50.1455 10.9312 1.56488
RightHand  -0.182532 -3.10495 -8.68192
LeftUpLeg  -7.64333 2.36316 0.323491
LeftLeg  7.58233 13.5084 0.911404
LeftFoot  3.01693 -0.0219633 0.834035
LeftToes  -18.0781 1.48347e-006 1.01831e-007
395
root  -13.0726 34.5709 -16.8342 -172.163 -0.112549 179.687
RightUpLeg  -9.16312 -15.0111 -1.57653
RightLeg  7.92264 -0.981672 -0.0715874
RightFoot  3.76589 0.0103244 0.0704577
RightToes  -24.4373 -0.108165 -0.214733
Spine  -2.51595 0.183286 0.370929
Spine1  -5.1232 0.390668 1.28718
HEad  -63.4718 1.63345 6.34452
LeftShoulder1  -1.94126e-019 -3.10601e-018 -2.51263e-017
LeftArm  -10.7237 24.7782 -82.7334
LeftForeArm  32.7214 -14.4101 -2.43647
LeftHand  -0.310673 -0.70669 5.9322
RightShoulder  -4.96962e-017 0 -2.36833e-017
RightArm  -33.4093 -24.9873 77.513
RightForeArm  49.8405 11.1705 1.56286
RightHand  -0.18445 -3.09722 -8.63984
LeftUpLeg  -7.58381 2.48721 0.344727
LeftLeg  7.50905 13.5782 0.898762
LeftFoot  3.03588 -0.0225723 0.843501
LeftToes  -18.0608 1.48347e-006 1.01831e-007
396
root  -13.0423 34.5757 -16.8418 -172.151 0.268478 179.703
RightUpLeg  -9.18902 -14.7031 -1.52473
RightLeg  7.86062 -0.904497 -0.0648877
RightFoot  3.81417 0.0100303 0.0746604
RightToes  -24.5649 -0.108165 -0.214324
Spine  -2.50481 0.199758 0.348964
Spine1  -5.10218 0.434882 1.24613
HEad  -63.4957 1.55709 6.44637
LeftShoulder1  -1.94126e-019 -3.10601e-018 -2.51263e-017
LeftArm  -10.5672 25.0463 -82.7039
LeftForeArm  32.4836 -14.4836 -2.43459
LeftHand  -0.311132 -0.724818 5.90971
RightShoulder  -4.96962e-017 0 -2.36833e-017
RightArm  -32.425 -24.8836 77.5903
RightForeArm  49.5234 11.5365 1.55421
RightHand  -0.183904 -3.02219 -8.67556
LeftUpLeg  -7.48529 2.71179 0.37401
LeftLeg  7.39876 13.7684 0.884779
LeftFoot  3.07413 -0.0239841 0.865445
LeftToes  -18.1038 1.48347e-006 1.01831e-007
397
root  -13.0168 34.58 -16.8451 -172.119 0.619644 179.721
RightUpLeg  -9.21846 -14.3768 -1.46739
RightLeg  7.75706 -0.89356 -0.0624651
RightFoot  3.85683 0.00992751 0.0761295
RightToes  -24.3737 -0.108165 -0.213867
Spine  -2.49245 0.216496 0.338352
Spine1  -5.07861 0.479058 1.22665
HEad  -63.5497 1.53404 6.48712
LeftShoulder1  -1.94126e-019 -3.10601e-018 -2.51263e-017
LeftArm  -10.5262 25.2629 -82.727
LeftForeArm  32.3277 -14.4633 -2.42181
LeftHand  -0.311386 -0.651788 5.87402
RightShoulder  -4.96962e-017 0 -2.36833e-017
RightArm  -31.2402 -24.8151 77.6204
RightForeArm  48.9197 11.9728 1.53928
RightHand  -0.186591 -3.03662 -8.6435
LeftUpLeg  -7.42381 2.8973 0.402644
LeftLeg  7.31482 13.9324 0.874848
LeftFoot  3.08505 -0.0248625 0.879097
LeftToes  -18.0104 1.48347e-006 1.01831e-007
398
root  -12.9915 34.5852 -16.8482 -172.081 0.935532 179.743
RightUpLeg  -9.24117 -14.2236 -1.40102
RightLeg  7.63617 -0.730279 -0.0492988
RightFoot  3.92251 0.00916172 0.0870721
RightToes  -24.3702 -0.108165 -0.213378
Spine  -2.48131 0.216064 0.332407
Spine1  -5.05678 0.489308 1.21907
HEad  -63.6105 1.56137 6.5113
LeftShoulder1  -1.94126e-019 -3.10601e-018 -2.51263e-017
LeftArm  -10.547 25.4553 -82.7695
LeftForeArm  32.2792 -14.2967 -2.38938
LeftHand  -0.311343 -0.689192 5.88943
RightShoulder  -4.96962e-017 0 -2.36833e-017
RightArm  -30.2973 -24.7158 77.6659
RightForeArm  48.5621 12.3739 1.51869
RightHand  -0.189844 -2.99718 -8.6677
LeftUpLeg  -7.36 3.07683 0.436702
LeftLeg  7.1995 14.0827 0.855956
LeftFoot  3.12337 -0.0261585 0.899241
LeftToes  -17.9756 1.48347e-006 1.01831e-007
399
root  -12.9673 34.5897 -16.852 -172.026 1.28099 179.763
RightUpLeg  -9.28021 -13.9861 -1.33859
RightLeg  7.5095 -0.623347 -0.040532
RightFoot  3.98824 0.00862049 0.0948058
RightToes  -24.3535 -0.108165 -0.21287
Spine  -2.4702 0.22243 0.32793
Spine1  -5.03477 0.512321 1.2145
HEad  -63.6717 1.60541 6.49772
LeftShoulder1  -1.94126e-019 -3.10601e-018 -2.51263e-017
LeftArm  -10.7328 25.627 -82.8362
LeftForeArm  32.162 -14.0792 -2.34864
LeftHand  -0.311684 -0.663765 5.86473
RightShoulder  -4.96962e-017 0 -2.36833e-017
RightArm  -29.4155 -24.6134 77.7087
RightForeArm  48.2659 12.7703 1.49357
RightHand  -0.194866 -2.93538 -8.70036
LeftUpLeg  -7.31684 3.29736 0.464912
LeftLeg  7.09607 14.2236 0.838868
LeftFoot  3.15117 -0.0272679 0.916485
LeftToes  -17.9651 1.48347e-006 1.01831e-007
400
root  -12.9435 34.5926 -16.854 -171.981 1.58777 179.771
RightUpLeg  -9.34956 -13.7471 -1.29006
RightLeg  7.46886 -0.577663 -0.037068
RightFoot  4.003 0.00831177 0.0992171
RightToes  -24.3733 -0.108165 -0.212356
Spine  -2.45639 0.219808 0.317157
Spine1  -5.00773 0.51598 1.19653
HEad  -63.7091 1.60584 6.47512
LeftShoulder1  -1.94126e-019 -3.10601e-018 -2.51263e-017
LeftArm  -10.9098 25.7476 -82.88
LeftForeArm  32.0394 -13.8264 -2.30516
LeftHand  -0.310309 -0.630647 5.93828
RightShoulder  -4.96962e-017 0 -2.36833e-017
RightArm  -28.8129 -24.5033 77.7875
RightForeArm  48.154 13.0933 1.46901
RightHand  -0.19868 -2.87396 -8.67557
LeftUpLeg  -7.28672 3.38834 0.485535
LeftLeg  7.03173 14.4375 0.835146
LeftFoot  3.19596 -0.0289322 0.942353
LeftToes  -18.056 1.48347e-006 1.01831e-007
401
root  -12.9236 34.5944 -16.8557 -171.924 1.91054 179.783
RightUpLeg  -9.43503 -13.4348 -1.2448
RightLeg  7.43785 -0.577035 -0.0367128
RightFoot  4.01137 0.00821747 0.100565
RightToes  -24.3021 -0.108165 -0.211853
Spine  -2.44569 0.234105 0.313441
Spine1  -4.98634 0.551601 1.19247
HEad  -63.8131 1.61385 6.42539
LeftShoulder1  -1.94126e-019 -3.10601e-018 -2.51263e-017
LeftArm  -11.224 25.7872 -82.9524
LeftForeArm  32.1468 -13.5076 -2.25453
LeftHand  -0.309917 -0.648205 5.96834
RightShoulder  -4.96962e-017 0 -2.36833e-017
RightArm  -28.0581 -24.4331 77.8166
RightForeArm  47.7423 13.4077 1.44835
RightHand  -0.201522 -2.82704 -8.65416
LeftUpLeg  -7.2704 3.62943 0.503434
LeftLeg  6.96773 14.5218 0.82383
LeftFoot  3.20423 -0.0294954 0.951107
LeftToes  -18.0699 1.48347e-006 1.01831e-007
